<?xml version="1.0" standalone="no"?>
<!DOCTYPE svg PUBLIC "-//W3C//DTD SVG 20010904//EN"
 "http://www.w3.org/TR/2001/REC-SVG-20010904/DTD/svg10.dtd">
<svg version="1.0" xmlns="http://www.w3.org/2000/svg"
 width="593.000000pt" height="593.000000pt" viewBox="0 0 593.000000 593.000000"
 preserveAspectRatio="xMidYMid meet">

<g transform="translate(0.000000,593.000000) scale(0.100000,-0.100000)"
fill="#000000" stroke="none">
<path d="M2408 4796 c-26 -7 -50 -11 -52 -9 -5 5 -70 -14 -98 -28 -10 -5 -31
-9 -47 -9 -23 0 -115 -40 -168 -73 -9 -6 -3 -22 22 -60 19 -29 74 -131 122
-227 48 -96 100 -197 117 -225 16 -27 170 -329 341 -670 171 -341 322 -638
336 -660 14 -22 62 -116 108 -210 46 -93 92 -182 103 -197 10 -15 79 -146 152
-292 73 -146 146 -283 162 -303 92 -123 188 -228 233 -255 20 -12 56 -39 80
-60 24 -21 50 -38 57 -38 7 0 25 -11 41 -24 40 -34 100 -66 124 -66 11 0 36
-7 57 -16 134 -58 321 -87 500 -77 67 3 125 10 128 15 3 4 18 8 35 8 34 0 244
66 277 88 16 11 21 21 16 36 -8 29 -562 1135 -584 1166 -9 14 -61 113 -115
220 -54 107 -105 206 -115 220 -9 14 -134 259 -277 545 -279 558 -337 663
-431 777 -69 84 -106 120 -177 170 -28 20 -59 46 -70 58 -23 26 -248 140 -275
140 -10 0 -35 7 -56 17 -106 45 -437 68 -546 39z"/>
<path d="M1759 2600 c-57 -10 -186 -70 -231 -107 -18 -16 -42 -33 -53 -39 -11
-6 -37 -35 -58 -65 -21 -30 -44 -62 -52 -72 -8 -9 -15 -21 -15 -25 0 -4 -10
-23 -22 -42 -12 -19 -23 -44 -24 -55 -26 -168 -27 -180 -16 -278 15 -135 24
-163 84 -254 70 -105 266 -299 342 -337 32 -16 60 -35 63 -43 3 -7 16 -13 29
-13 14 0 60 -18 104 -40 44 -22 86 -40 95 -40 8 0 34 -9 58 -19 84 -39 335
-54 497 -32 80 11 324 85 354 107 17 12 6 37 -157 363 -96 192 -173 352 -170
355 3 3 1 11 -4 18 -6 7 -14 24 -18 38 -4 14 -42 95 -84 180 -65 132 -86 166
-146 229 -54 57 -88 82 -149 112 -44 22 -86 39 -95 39 -9 0 -34 7 -56 15 -43
15 -197 18 -276 5z"/>
</g>
</svg>
